<?xml version="1.0" encoding="UTF-8"?><svg version="1.1" viewBox="0 0 24 24" xmlns="http://www.w3.org/2000/svg" xmlns:xlink="http://www.w3.org/1999/xlink"><!--Generated by IJSVG (https://github.com/iconjar/IJSVG)--><g fill="#000"><path d="M5.193,9.9l-3.26066e-09,8.80185e-12c0.138071,-0.000372695 0.250301,0.111254 0.250674,0.249324c0.000188009,0.0696508 -0.0286891,0.136222 -0.0796739,0.183676l-3.41233e-07,3.05015e-07c-0.512734,0.458313 -0.993209,0.951484 -1.438,1.476c-0.793,1.1 -1.651,1.838 -1.729,5.216l-1.57435e-08,6.55809e-07c-0.00662707,0.276063 0.211794,0.505228 0.487857,0.511855c0.00404728,9.71576e-05 0.0080956,0.000145156 0.012144,0.000143985h7.214h-2.18557e-08c0.276142,1.20706e-08 0.5,-0.223858 0.5,-0.5c0.046,-12.264 1.784,-11.6 -2.03,-13.5c-0.781,-0.390995 -2.029,-1.046 -2.881,-1.498l2.01556e-08,1.06228e-08c-0.311226,-0.164029 -0.696496,-0.0447017 -0.860525,0.266524c-0.0481736,0.0914039 -0.0733902,0.193154 -0.0734753,0.296476v1.098l4.99695e-10,3.16131e-05c0,0.300504 -0.135137,0.585077 -0.368024,0.774988l-3.54198,2.87798l-8.69493e-08,4.98339e-08c-0.44887,0.257264 -0.699865,0.758467 -0.637,1.272c0.266,0.814 0.418,1.275 1.273,1.275Z"></path><path d="M11.078,19.535c-0.149,-0.409 -0.624,-0.5 -1.1,-0.5h-7.666c-0.472,0 -0.947,0.091 -1.1,0.5l-0.412,1.901l-1.08899e-08,5.11713e-08c-0.0316319,0.148638 0.0108757,0.30338 0.114,0.415l-5.58476e-08,-6.07816e-08c0.108935,0.118559 0.262999,0.185418 0.424,0.184h9.621l-1.5656e-08,-1.10528e-10c0.160653,0.00113415 0.314299,-0.0657 0.423,-0.184l2.87016e-08,-3.08585e-08c0.103582,-0.111366 0.146155,-0.266348 0.114,-0.415Z"></path><path d="M23.989,21.436l-0.416,-1.9c-0.15,-0.409 -0.625,-0.5 -1.1,-0.5h-7.667c-0.471,0 -0.946,0.091 -1.095,0.5l-0.417,1.9l-1.79423e-08,8.35205e-08c-0.0318958,0.148474 0.0102327,0.303193 0.113,0.415l-2.34137e-09,-2.54028e-09c0.109084,0.118351 0.26305,0.185167 0.424,0.184h9.621l3.03979e-08,2.20329e-10c0.16095,0.00116658 0.314916,-0.0656493 0.424,-0.184l7.72438e-09,-8.34765e-09c0.103225,-0.111554 0.145418,-0.266512 0.113,-0.415Z"></path><path d="M15.2,17.535h6.65l1.87453e-08,1.49996e-11c0.276142,0.000220996 0.500179,-0.223457 0.5004,-0.4996c5.44371e-06,-0.00680212 -0.00012792,-0.0136036 -0.000400007,-0.0204003l2.53921e-07,5.09161e-06c-0.114889,-2.30376 -0.745384,-4.55235 -1.845,-6.58l4.92597e-08,8.98086e-08c-0.192718,-0.351356 -0.561263,-0.570108 -0.962,-0.571h-2.043l-2.84682e-08,6.33822e-11c-0.400737,0.000892201 -0.769282,0.219644 -0.962,0.571l-1.27837e-07,2.35843e-07c-1.09917,2.02783 -1.72964,4.27632 -1.845,6.58l-1.26006e-08,3.14763e-07c-0.0110456,0.275921 0.203679,0.508554 0.4796,0.5196c0.00679668,0.000272083 0.0135982,0.000405442 0.0204003,0.000399994Z"></path><path d="M20.5519,3.80715c1.13486,1.13486 1.13486,2.97484 0,4.1097c-1.13486,1.13486 -2.97484,1.13486 -4.1097,0c-1.13486,-1.13486 -1.13486,-2.97484 0,-4.1097c1.13486,-1.13486 2.97484,-1.13486 4.1097,0"></path></g></svg>