<?xml version="1.0" encoding="UTF-8"?><svg version="1.1" viewBox="0 0 24 24" xmlns="http://www.w3.org/2000/svg" xmlns:xlink="http://www.w3.org/1999/xlink"><!--Generated by IJSVG (https://github.com/iconjar/IJSVG)--><g fill="#FFF"><path d="M10.232,14.341l-5.06398e-08,-2.10269e-08c-0.510035,-0.211779 -1.09518,0.0299811 -1.307,0.54l3.13132e-08,-7.68695e-08c-0.0499075,0.122516 -0.124448,0.233475 -0.219,0.326l4.87509e-08,-4.93847e-08c-0.186298,0.18872 -0.44082,0.29435 -0.706,0.293h-4l-8.74228e-08,-1.77636e-15c-1.10457,-4.82823e-08 -2,-0.895431 -2,-2c0,0 0,0 0,0v-3l2.30926e-14,3.01992e-07c-1.66785e-07,-1.10457 0.89543,-2 2,-2h4l-2.9949e-08,1.06622e-10c0.265884,-0.000946581 0.520996,0.10499 0.708,0.294l-2.04226e-09,-2.01507e-09c0.0934773,0.0922325 0.167296,0.20245 0.217,0.324l-1.55349e-08,-3.83468e-08c0.207369,0.511875 0.790432,0.758726 1.30231,0.551357c0.511875,-0.207369 0.758726,-0.790432 0.551357,-1.30231c-0.00217506,-0.00536898 -0.00439674,-0.010719 -0.00666477,-0.0160493l8.94775e-08,2.15809e-07c-0.464689,-1.12077 -1.55871,-1.85131 -2.772,-1.851h-4l-1.74846e-07,3.55271e-15c-2.20914,9.65645e-08 -4,1.79086 -4,4c0,0 0,1.77636e-15 0,1.77636e-15v3l4.26326e-14,6.03983e-07c3.33571e-07,2.20914 1.79086,4 4,4h4l1.64917e-07,-1.92006e-10c1.21247,-0.00141165 2.30548,-0.730871 2.772,-1.85l2.43361e-08,-5.83054e-08c0.212732,-0.50967 -0.0279842,-1.09529 -0.537654,-1.30802c-0.000781535,-0.000326206 -0.00156348,-0.000651419 -0.00234584,-0.000975638Z"></path><path d="M6,12l1.06581e-14,1.50996e-07c8.33927e-08,0.552285 0.447715,1 1,1h11l-4.37114e-08,-1.77636e-15c0.552285,2.41411e-08 1,-0.447715 1,-1c2.41411e-08,-0.552285 -0.447715,-1 -1,-1h-11l-4.37114e-08,3.55271e-15c-0.552285,2.41411e-08 -1,0.447715 -1,1c0,0 0,8.88178e-15 0,8.88178e-15Z"></path><path d="M20,6.5h-4l-2.3575e-08,2.22258e-11c-1.21255,0.00114314 -2.3057,0.730693 -2.772,1.85l-3.01563e-08,7.08739e-08c-0.216233,0.508195 0.0204485,1.09546 0.528643,1.31169c0.508195,0.216233 1.09546,-0.0204485 1.31169,-0.528643c0.00226803,-0.00533037 0.00448971,-0.0106803 0.00666477,-0.0160493l-2.06273e-08,5.03305e-08c0.050157,-0.122383 0.124665,-0.233295 0.219,-0.326l-2.70717e-08,2.71758e-08c0.186886,-0.187604 0.441199,-0.292427 0.706,-0.291h4l-8.74228e-08,1.77636e-15c1.10457,-4.82823e-08 2,0.89543 2,2v3v0c0,1.10457 -0.895431,2 -2,2h-4l2.03644e-08,-1.07129e-10c-0.265973,0.00139918 -0.521254,-0.104607 -0.708,-0.294l1.89637e-08,1.86317e-08c-0.0936937,-0.0920532 -0.167544,-0.202318 -0.217,-0.324l2.30013e-08,5.53169e-08c-0.212077,-0.510035 -0.797465,-0.751577 -1.3075,-0.5395c-0.510035,0.212077 -0.751577,0.797465 -0.5395,1.3075l-7.74281e-08,-1.86557e-07c0.465,1.12038 1.55896,1.85047 2.772,1.85h4l-1.74846e-07,-3.55271e-15c2.20914,9.65645e-08 4,-1.79086 4,-4v-3l3.55271e-15,-1.74924e-07c0,-2.20914 -1.79086,-4 -4,-4Z"></path></g></svg>