<?xml version="1.0" encoding="UTF-8"?><svg version="1.1" viewBox="0 0 24 24" xmlns="http://www.w3.org/2000/svg" xmlns:xlink="http://www.w3.org/1999/xlink"><!--Generated by IJSVG (https://github.com/iconjar/IJSVG)--><path d="M22.5,0h-21h-6.55671e-08c-0.828427,3.62117e-08 -1.5,0.671573 -1.5,1.5c0,0 0,0 0,0v7.625l1.12276e-08,4.00301e-06c0.0199765,7.12196 4.9551,13.2867 11.9,14.865l-4.09663e-08,-8.36221e-09c0.0659863,0.0134694 0.134014,0.0134694 0.2,1.67244e-08l9.07453e-07,-2.06227e-07c6.9449,-1.57829 11.88,-7.74304 11.9,-14.865v-7.625v0c0,-0.828427 -0.671573,-1.5 -1.5,-1.5c0,0 -2.02154e-09,0 -2.02154e-09,0Zm-4.615,16.32l3.09212e-08,-3.71237e-08c-0.0951782,0.11427 -0.236284,0.180242 -0.385,0.18h-11l1.13634e-08,1.47544e-11c-0.276142,-0.00035853 -0.499709,-0.224507 -0.49935,-0.500649c3.93504e-05,-0.0303079 0.00283432,-0.0605495 0.00835039,-0.0903512l2.08897e-08,-1.19431e-07c0.0898267,-0.51356 0.255292,-1.01097 0.491,-1.476c0.453,-0.876 1.591,-1.415 3.667,-2.16l2.16685e-10,-5.87999e-10c0.0845947,-0.229555 0.0821042,-0.482157 -0.00699998,-0.71l-3.09971e-07,-3.74845e-07c-0.812181,-0.982164 -1.21663,-2.23847 -1.13,-3.51l2.86752e-08,4.78205e-07c-0.0952731,-1.58883 1.11549,-2.95407 2.70433,-3.04934c0.0884548,-0.00530413 0.177107,-0.00652582 0.265675,-0.00366118l-1.41737e-07,4.53502e-09c1.59087,-0.0509017 2.92179,1.19749 2.97269,2.78836c0.0028228,0.0882232 0.00159103,0.176529 -0.00369141,0.26464l2.39185e-07,3.59718e-06c0.0852338,1.28187 -0.326212,2.54736 -1.149,3.534l-1.44666e-08,4.24415e-08c-0.0779323,0.228635 -0.0683121,0.478047 0.027,0.7c2.061,0.736 3.2,1.275 3.652,2.152l3.78695e-08,7.44852e-08c0.236193,0.464567 0.402006,0.961667 0.492,1.475l1.44999e-08,8.07682e-08c0.0259105,0.144328 -0.0128407,0.292755 -0.105998,0.405997Z" fill="#000"></path></svg>