<?xml version="1.0" encoding="UTF-8"?><svg version="1.1" viewBox="0 0 24 24" xmlns="http://www.w3.org/2000/svg" xmlns:xlink="http://www.w3.org/1999/xlink"><!--Generated by IJSVG (https://github.com/iconjar/IJSVG)--><g fill="#000"><path d="M5,2h4.5l-6.55671e-08,1.77636e-15c0.828427,-3.62117e-08 1.5,0.671573 1.5,1.5v1.5l1.06581e-14,1.50996e-07c8.33927e-08,0.552285 0.447715,1 1,1c0.552285,-8.33927e-08 1,-0.447715 1,-1v-1.5v0c0,-1.933 -1.567,-3.5 -3.5,-3.5h-4.5l-4.37114e-08,9.99201e-16c-0.552285,2.41411e-08 -1,0.447715 -1,1c2.41411e-08,0.552285 0.447715,1 1,1Z"></path><path d="M19.5,7.5h-15l-1.96701e-07,3.55271e-15c-2.48528,1.08635e-07 -4.5,2.01472 -4.5,4.5c0,0 0,1.77636e-15 0,1.77636e-15v9.92l1.31693e-08,-3.62109e-06c-0.00201579,0.554135 0.219736,1.08562 0.614997,1.474l1.59607e-07,1.57667e-07c0.395326,0.39052 0.92932,0.608433 1.485,0.606002h0.029c1.949,-0.026 2.248,-0.6 4.192,-4.361l0.723,-1.394l1.64161e-08,-2.80014e-08c0.450846,-0.769023 1.27457,-1.24249 2.166,-1.245h5.579l-3.56087e-08,1.60085e-11c0.878657,-0.000395028 1.69302,0.460507 2.145,1.214c0.321,0.614 0.6,1.161 0.853,1.647c1.806,3.503 2.132,4.139 4.072,4.139v0l-1.26352e-07,-4.32774e-10c0.568123,0.00194592 1.1135,-0.223046 1.515,-0.625l-2.97827e-08,2.93493e-08c0.400313,-0.394487 0.625794,-0.932976 0.626,-1.495v-9.88h3.55271e-15c0,-2.48528 -2.01472,-4.5 -4.5,-4.5Zm-12.25,6h-0.75h-2.18557e-08c-0.276142,1.20706e-08 -0.5,0.223858 -0.5,0.5c0,0 0,1.77636e-15 0,1.77636e-15v0.75v0c0,0.414214 -0.335786,0.75 -0.75,0.75c-0.414214,0 -0.75,-0.335786 -0.75,-0.75v-0.75v0c0,-0.276142 -0.223858,-0.5 -0.5,-0.5h-0.75h-3.27835e-08c-0.414214,-1.81059e-08 -0.75,-0.335786 -0.75,-0.75c1.81059e-08,-0.414214 0.335786,-0.75 0.75,-0.75h0.75h-2.18557e-08c0.276142,1.20706e-08 0.5,-0.223858 0.5,-0.5v-0.75l7.10543e-15,1.13247e-07c-6.25445e-08,-0.414214 0.335786,-0.75 0.75,-0.75c0.414214,-6.25445e-08 0.75,0.335786 0.75,0.75c0,0 0,1.77636e-15 0,1.77636e-15v0.75l7.10543e-15,7.54979e-08c4.16963e-08,0.276142 0.223858,0.5 0.5,0.5h0.75h-3.27835e-08c0.414214,-1.81058e-08 0.75,0.335786 0.75,0.75c1.81059e-08,0.414214 -0.335786,0.75 -0.75,0.75Zm8.75,0l-4.37114e-08,-1.77636e-15c-0.552285,-2.41411e-08 -1,-0.447715 -1,-1c2.41411e-08,-0.552285 0.447715,-1 1,-1c0.552285,2.41411e-08 1,0.447715 1,1v-4.37114e-08c0,0.552285 -0.447715,1 -1,1Zm2.5,2l-4.37114e-08,-1.77636e-15c-0.552285,-2.41411e-08 -1,-0.447715 -1,-1c2.41411e-08,-0.552285 0.447715,-1 1,-1c0.552285,2.41411e-08 1,0.447715 1,1v-4.37114e-08c0,0.552285 -0.447715,1 -1,1Zm0,-4l-4.37114e-08,-1.77636e-15c-0.552285,-2.41411e-08 -1,-0.447715 -1,-1c2.41411e-08,-0.552285 0.447715,-1 1,-1c0.552285,2.41411e-08 1,0.447715 1,1v-4.37114e-08c0,0.552285 -0.447715,1 -1,1Zm2.5,2l-4.37114e-08,-1.77636e-15c-0.552285,-2.41411e-08 -1,-0.447715 -1,-1c2.41411e-08,-0.552285 0.447715,-1 1,-1c0.552285,2.41411e-08 1,0.447715 1,1v-4.37114e-08c0,0.552285 -0.447715,1 -1,1Z"></path></g></svg>